<svg xmlns="http://www.w3.org/2000/svg" viewBox="0 0 186.07 62.25"><g id="Layer_2" data-name="Layer 2"><g id="Navigation-WI"><path d="M75.15,41.08h7c1.25,0,1.83.44,1.83,1.58v1.91c0,1.14-.58,1.59-1.83,1.59H81.07l3.77,3.08H82.11l-3.29-3.08H77v3.08H75.15ZM77,42.48v2.28h4.27c.59,0,.86-.11.86-.64v-1c0-.53-.27-.65-.86-.65Z"/><path d="M87.85,41.08H96.2v1.39H89.74v1.82h3.77v1.39H89.74v2h6.54v1.53H87.85Z"/><path d="M101.52,42.5v1.76h5.1c1.53,0,2,.39,2,1.93v1.12c0,1.54-.51,1.93-2,1.93h-5.05c-1.54,0-2-.39-2-1.93v-.22l1.67-.35v1H107V45.84h-5.1c-1.53,0-2-.39-2-1.93V43c0-1.54.49-1.93,2-1.93h4.64c1.46,0,2,.38,2,1.78V43l-1.68.39V42.5Z"/><path d="M114.45,41.08h6c1.53,0,2,.39,2,1.93v4.3c0,1.54-.49,1.93-2,1.93h-6c-1.53,0-2-.39-2-1.93V43C112.43,41.47,112.92,41.08,114.45,41.08Zm6.14,6.63V42.53h-6.26v5.18Z"/><path d="M126.5,41.08h7c1.25,0,1.84.44,1.84,1.58v1.91c0,1.14-.59,1.59-1.84,1.59h-1.07l3.76,3.08h-2.72l-3.29-3.08h-1.8v3.08H126.5Zm1.87,1.4v2.28h4.27c.59,0,.85-.11.85-.64v-1c0-.53-.26-.65-.85-.65Z"/><path d="M142.7,49.24h-1.9V42.53h-3.75V41.08h9.41v1.45H142.7Z"/><path d="M150.52,42.5v1.76h5.09c1.54,0,2,.39,2,1.93v1.12c0,1.54-.51,1.93-2,1.93h-5c-1.54,0-2-.39-2-1.93v-.22l1.67-.35v1H156V45.84h-5.1c-1.53,0-2-.39-2-1.93V43c0-1.54.49-1.93,2-1.93h4.64c1.45,0,2,.38,2,1.78V43l-1.67.39V42.5Z"/><path d="M65.33,55.91V60.8h4.85V59.14l1.79.37v.92c0,1.45-.46,1.82-1.91,1.82H65.45c-1.45,0-1.92-.37-1.92-1.82V56.36c0-1.45.47-1.83,1.92-1.83h4.61c1.45,0,1.91.38,1.91,1.83v.73l-1.79.28V55.91Z"/><path d="M77.43,54.53h5.69c1.45,0,1.91.38,1.91,1.83v4.07c0,1.45-.46,1.82-1.91,1.82H77.43c-1.45,0-1.91-.37-1.91-1.82V56.36C75.52,54.91,76,54.53,77.43,54.53Zm5.81,6.27V55.91H77.31V60.8Z"/><path d="M88.8,54.53H90l5.43,4.55a6.32,6.32,0,0,1,.88.84c0-.65-.07-1.09-.07-1.33V54.53h1.61v7.72H96.66L91,57.48a5.49,5.49,0,0,1-.65-.63c.06.6.08,1,.08,1.23v4.17H88.8Z"/><path d="M100,54.53H102l3.13,5.58,3-5.58h1.8l-4.25,7.72h-1.24Z"/><path d="M112,54.53h7.9v1.32h-6.1v1.72h3.56v1.32H113.8V60.8H120v1.45h-8Z"/><path d="M123.28,54.53h1.23l5.43,4.55a5.38,5.38,0,0,1,.88.84c0-.65-.07-1.09-.07-1.33V54.53h1.62v7.72h-1.23l-5.67-4.77a5.42,5.42,0,0,1-.64-.63c.06.6.07,1,.07,1.23v4.17h-1.62Z"/><path d="M139.89,62.25H138.1V55.91h-3.55V54.53h8.9v1.38h-3.56Z"/><path d="M145.65,54.53h1.8v7.72h-1.8Z"/><path d="M153.15,54.53h5.68c1.45,0,1.92.38,1.92,1.83v4.07c0,1.45-.47,1.82-1.92,1.82h-5.68c-1.46,0-1.92-.37-1.92-1.82V56.36C151.23,54.91,151.69,54.53,153.15,54.53ZM159,60.8V55.91H153V60.8Z"/><path d="M164.51,54.53h1.23l5.43,4.55a5.87,5.87,0,0,1,.89.84c-.05-.65-.08-1.09-.08-1.33V54.53h1.62v7.72h-1.23l-5.67-4.77a6.31,6.31,0,0,1-.64-.63c.06.6.07,1,.07,1.23v4.17h-1.62Z"/><path d="M179.16,55.88v1.66H184c1.45,0,1.93.37,1.93,1.82v1.07c0,1.45-.48,1.82-1.93,1.82h-4.77c-1.45,0-1.93-.37-1.93-1.82v-.21l1.58-.33v.91h5.46V59H179.5c-1.45,0-1.91-.38-1.91-1.83v-.85c0-1.45.46-1.83,1.91-1.83h4.39c1.37,0,1.91.36,1.91,1.69v.17l-1.58.37v-.88Z"/><path d="M165.78,47.91v-.56c0-.87.31-1.14,1.06-1.59l1.74-1a1.61,1.61,0,0,1-.73-1.29V43c0-1.22.66-1.55,2.12-1.55h1.72c1.54,0,2.11.33,2.11,1.72v.51l-1.53.26V42.75h-2.8v.62l4,3.34,2-1.66,1.12,1-2,1.64,2.7,2.26h-2.6l-1.4-1.19-.77.68a1.94,1.94,0,0,1-1.6.51h-3.05C166.31,49.93,165.78,49.52,165.78,47.91Zm5.63.53.79-.67-2.56-2.14L167.45,47v1.45Z"/><path d="M172.57,7s0-1.31,2.71-1.41c0,0,2.31-.18,2.31,1.41,0,0,.51,1.58-2.81,1.58C174.78,8.56,172.67,9,172.57,7Z"/><path d="M160.24,31.37a120.24,120.24,0,0,1-1-14.58A1.72,1.72,0,0,1,161,15a1.75,1.75,0,0,1,2.21,1l.3,2.43s1.61-3.65,5.23-3.65a3.47,3.47,0,0,1,3.42,3.65,1.64,1.64,0,0,1-1.4,2.06,1.83,1.83,0,0,1-2.42-2s-.6-.93-2-.28A3.83,3.83,0,0,0,163.68,22s1.39,4.5,2.54,7.67a2.56,2.56,0,0,1-1.33,2.25S160.75,32.87,160.24,31.37Z"/><path d="M92.18,19.81a5.67,5.67,0,0,0,.45-.58,2,2,0,0,0-.69-2.52l0,0a1.1,1.1,0,0,0-.42-.11c-.57,0-1,.82-2.38,2,0,0-5.33,1.13-5.39-1.29,0,0,1.08-2.9,8.22-3.27,0,0,3.2-.58,4.83,8,1.68,8.79.85,9.63.85,9.63s-6.64,1.59-5-2.15l.1-.56a8.85,8.85,0,0,1-6.14,2.52s-4.42.33-3.92-3c0,0-.31-3.95,9-8.26L92,20a1,1,0,0,0,.18-.14l0,0M87,28.35a6.13,6.13,0,0,0,5.83-1.6c.8-.84.3-4.39.3-4.39C84.29,25.91,87,28.35,87,28.35Z"/><path d="M117.91,19.81a4.25,4.25,0,0,0,.45-.58,2,2,0,0,0-.69-2.52l0,0a1.06,1.06,0,0,0-.41-.11c-.58,0-1,.82-2.38,2,0,0-5.34,1.13-5.4-1.29,0,0,1.09-2.9,8.23-3.27,0,0,3.2-.58,4.83,8,1.67,8.79.84,9.63.84,9.63s-6.64,1.59-5-2.15l.1-.56a8.85,8.85,0,0,1-6.14,2.52s-4.42.33-3.92-3c0,0-.31-3.95,9-8.26l.25-.15a1,1,0,0,0,.17-.14l0,0m-5.17,8.54a6.13,6.13,0,0,0,5.83-1.6c.81-.84.3-4.39.3-4.39C110,25.91,112.74,28.35,112.74,28.35Z"/><path d="M151.9,19.81a4.25,4.25,0,0,0,.45-.58,2,2,0,0,0-.68-2.52l0,0a1.1,1.1,0,0,0-.42-.11c-.57,0-1,.82-2.38,2,0,0-5.33,1.13-5.4-1.29,0,0,1.09-2.9,8.23-3.27,0,0,3.2-.58,4.83,8,1.68,8.79.84,9.63.84,9.63s-6.63,1.59-5-2.15l.11-.56a8.88,8.88,0,0,1-6.14,2.52s-4.42.33-3.92-3c0,0-.31-3.95,9.05-8.26l.24-.15a1.5,1.5,0,0,0,.18-.14l0,0m-5.17,8.54a6.15,6.15,0,0,0,5.84-1.6c.8-.84.3-4.39.3-4.39C144,25.91,146.73,28.35,146.73,28.35Z"/><path d="M177.2,15.53s-2.61-.28-2.91,1.59c0,0-1.74,11-.23,14A8.33,8.33,0,0,0,177,32s2.74-.07,2.94-1.28c0,0-1.83-13.21-1.53-14A1.18,1.18,0,0,0,177.2,15.53Z"/><path d="M62.36,15.34c0-4,.12-7.39,0-9.92,0,0,2.12-2.95,4.52-.1l-.32,8.38,12-9.61s4,0,4.21,2.08c0,0,.61,1.63-.26,2.44L66.32,17.36s14.42,5.28,16,7.52c0,0-.19,3.72-3,3.51L66.66,21l1.71,12.53S62.55,36,60.63,33a71.88,71.88,0,0,0,1.71-14,2.19,2.19,0,0,1-.3-3.18Z"/><path d="M100.36,6.93,100,30.68A3.6,3.6,0,0,0,103.13,32s2.94-.53,3.24-1.38L104.64,6.84s.38-2.57-1.94-2.66A3.28,3.28,0,0,0,100.36,6.93Z"/><path d="M130.45,20.56c.75-1.37,2.71-3.25,5-3.06,0,0,1.17-.39,1.11,2.24-.1,4.3-1.83,8.32-2.34,10.2a3,3,0,0,0,2.74,2,3.14,3.14,0,0,0,3.54-2.33s3.3-13.38-3.64-14.78A8.07,8.07,0,0,0,130.09,18s.81-9.91,1-11.41c0,0,.5-2-2.11-2A2.29,2.29,0,0,0,126.27,7s-1.8,21.52-1.2,23.58a9.6,9.6,0,0,0,2.81,1.21s2.53.19,2.94-1.21l-1-8.33A6.32,6.32,0,0,1,130.45,20.56Z"/><path d="M183.43,28.08a2,2,0,1,1-2,2,2,2,0,0,1,2-2Zm0,.4A1.63,1.63,0,1,0,185,30.11a1.58,1.58,0,0,0-1.56-1.63Zm-.34,2.8h-.47V29a3.89,3.89,0,0,1,.71-.06,1.24,1.24,0,0,1,.78.18.59.59,0,0,1,.2.48.55.55,0,0,1-.44.53h0c.2,0,.33.22.36.55a1.8,1.8,0,0,0,.13.56h-.5a2.28,2.28,0,0,1-.13-.59.37.37,0,0,0-.42-.34h-.22Zm0-1.29h.23c.27,0,.49-.1.49-.33s-.13-.33-.46-.33h-.26Z"/><rect x="70.11" y="35.95" width="115.96" height="0.67"/><path d="M38.28,32.42s1.63,1.64,5,1.13c0,0,1.46,8,0,13.3L43,45.41s-.34-2.07-3.16-3.79c0,0,2.33,2.64.66,7.51a12.47,12.47,0,0,0-1-1.76c.18,1.74,0,2.59-.5,2.71-3.12.77-2-6.17-2-6.17a17.19,17.19,0,0,0-1.33,6.16l-.93,0-1,0a79.12,79.12,0,0,0,2.25-11.21s1.48,3.66,2.68,2.89c0,0,.45-.84,0-3.08C38.64,38.62,38.38,36.34,38.28,32.42Z"/><path d="M21.28,47.31a1.21,1.21,0,0,1,.49-1.54c1.5-.19,1.78.76,1.78.76-.17.42.49.85.49.85.46,0,1,.55,1,.55a1,1,0,0,1-.36,1.51c-.29.16-.41.75-.41.75H26.2c.71-3.15.09-6.27-.66-10.06,0,0-1.08.54-2.42-2.87-1.23-3.11-1.23-8.32-1.23-8.32-4.94.82-9.28-4.27-9.28-4.27a12.29,12.29,0,0,0-4.53-3.6s-6.17-.16-2.71,16.84c1.58-3.2,6.14-4.36,6.14-4.36a12.45,12.45,0,0,0-2.9,10.59,5.76,5.76,0,0,1,3.68-4.9s-2.46,2-2,7.47a3.87,3.87,0,0,0,.42,1,11.87,11.87,0,0,1,1-1.76c-.18,1.74.1,2.46.5,2.71a2.26,2.26,0,0,0,.89-.26s1.84-.78,1-6.8a13.92,13.92,0,0,1,1,5.35S19,43.08,16.8,36.56c0,0,3.68,3.87.34,13.07,0,0,1.8.23,2.5-2.87a6.72,6.72,0,0,1-.29,3.48h.88A9.83,9.83,0,0,0,21,48.78,6.46,6.46,0,0,0,21.28,47.31Z"/><path d="M26.43,39.6s-1.14-6.1-1.11-6.24a24,24,0,0,0,.28,5.49s.11,1.14-.67.31l0,0s-2.5-4-2.25-11a5.56,5.56,0,0,1,.88-2.72v0L23,25c-.87-.71.77-2.22,1.33-2.69a.8.8,0,0,0,.17-.15l-.17.15a1.22,1.22,0,0,1-1-.08c-3-2.69-.37-7-.37-7a2.5,2.5,0,0,0-3.23-2.6c3.17.81,1.54,3.35,1.32,3.72a1.31,1.31,0,0,0-.05.15c-1.15,5,1.84,6.46,1.84,6.46-2,1.37-.47,2.8-.47,2.8-.13.47-.43,1.89-.43,1.89-3.94.85-8-3.6-8-3.6a15.83,15.83,0,0,0-6.36-4.58C2.42,17.15.89,15.72.27,14.65a1.15,1.15,0,0,1,.56-1.82A7.66,7.66,0,0,0,2.89,11.1c.14-.12.1-.39.1-.39A5.35,5.35,0,0,1,5.08,6.59c.8-.57,7.53-4.87,7.53-4.87C16.71-1.64,23.26,1,23.26,1l5,3.78c-.63,1.18-4.34,2.83-4.34,2.83,1.19,0,4-1.56,4-1.56a7.43,7.43,0,0,1,6.78-1.82A7.05,7.05,0,0,1,38,7.51c.85,1.58,3.15,3.24,4.14,3.91a3.15,3.15,0,0,0,.48.3l-.48-.3A17.36,17.36,0,0,1,39,7.35a13.94,13.94,0,0,0,5.67-.08,4.91,4.91,0,0,1,4.8.47c9.07,8.75,9.55,15.05,9.39,16.55s-.94,1.26-.94,1.26c-1.42-.87-1.9-.08-1.9-.08a8.37,8.37,0,0,1-6.3,5c-2.91.08-2.91.47-2.91.47-4.83,2.93-8.57.4-8.57.4a8.73,8.73,0,0,1,0-2.19c2.14-1.11.09-3.84.09-3.84C42.34,22.76,40,20,40,20c.87,3.16-2.57,4.85-2.84,5,0,0,1.76,1.88.59,3l-.06,0c-.53,2.81.34,8.78.47,10.88l.05.48c.2,1.52-.29,1.13-.29,1.13h0c-1-.39-2.18-4.13-2.18-4.13l-.51,2.23a83,83,0,0,1-2.8,11.49c-4,11.87-10.08,6.2-10.08,6.2-2.75-2.44-1.18-6.3-1.18-6.3a9.31,9.31,0,0,0,.95-2.76c-.16-1.81.87-.47.87-.47-.08.71.71.94.71.94C25,48.09,24,49,24,49c-.63.31-.63,1.65-.63,1.65-.24,3.15,1.58,2.68,1.58,2.68,3.63-.41,2.54-9.19,1.61-12.94l-.1-.78m8.22-11.44c.05,0,.08,0,.08,0s0-.08,0-.08a7.21,7.21,0,0,0-7.17-.5s-.09.07-.07.13a.14.14,0,0,0,.12,0l.06,0a12.2,12.2,0,0,1,6.93.46Zm-.41,3.72a.05.05,0,0,0,.07,0,.1.1,0,0,0,0-.08,6.75,6.75,0,0,0-6.74-.59s-.08.06-.07.11a.13.13,0,0,0,.11,0h.06a11.35,11.35,0,0,1,6.51.55Zm-.08,3.62c.05,0,.07,0,.07,0a.1.1,0,0,0,0-.08,6.64,6.64,0,0,0-6.6-.58s-.09.06-.07.12a.15.15,0,0,0,.11,0l.05,0a11.29,11.29,0,0,1,6.39.54ZM33.46,40s.06,0,.06,0,0-.06,0-.06a5.6,5.6,0,0,0-5.6-.53s-.07,0-.06.09a.09.09,0,0,0,.09,0h0a9.54,9.54,0,0,1,5.42.5Zm-.93,4.14s0,0,0,0a.12.12,0,0,0,0,0,4.32,4.32,0,0,0-4.27-.75s-.05,0-.05.07a.08.08,0,0,0,.07,0h0a7.3,7.3,0,0,1,4.13.72ZM24,18.16a1.46,1.46,0,0,0-.74,1.12s-.05.54,1.26-.06h0s.11-.09.11-.09a1.85,1.85,0,0,1,.77-.23c.11,0,.05-.08.05-.08a1.17,1.17,0,0,0-1.34-.68Zm13.78,2.28a1.18,1.18,0,0,0-1.37.62s-.06.05,0,.08c.46.14.67.14.76.27l.11.1h0c1.07.73,1.25.13,1.25.13a1.41,1.41,0,0,0-.68-1.16Z"/></g></g></svg>